<?xml version="1.0" encoding="UTF-8"?>
<svg version="1.1" xmlns="http://www.w3.org/2000/svg" width="1024" height="1024">
<path d="M0 0 C337.92 0 675.84 0 1024 0 C1024 337.92 1024 675.84 1024 1024 C686.08 1024 348.16 1024 0 1024 C0 686.08 0 348.16 0 0 Z " fill="#FBFEFE" transform="translate(0,0)"/>
<path d="M0 0 C0.85932129 0.09120117 1.71864258 0.18240234 2.60400391 0.27636719 C79.63913092 8.7157334 154.2869189 45.74005526 210.46386719 98.56542969 C212.16436132 100.15349446 213.88170256 101.72199816 215.6015625 103.2890625 C226.59647406 113.33606211 226.59647406 113.33606211 231.3203125 119.01171875 C233.33954689 121.40192876 235.48374158 123.65599942 237.625 125.9375 C243.63983305 132.5438068 249.00532964 139.60207383 254.33544922 146.76611328 C255.42009311 148.2217442 256.51001803 149.67345951 257.60595703 151.12060547 C300.14850702 207.3155537 329.61977544 282.11672791 334 353 C335.06436279 352.98428955 336.12872559 352.9685791 337.2253418 352.95239258 C341.18555086 352.89796946 345.14572704 352.86360507 349.10620117 352.83520508 C350.81817184 352.8201466 352.53010411 352.79969545 354.24194336 352.77368164 C356.70696505 352.7371681 359.17147535 352.72024438 361.63671875 352.70703125 C362.77919319 352.68380547 362.77919319 352.68380547 363.94474792 352.66011047 C368.50776979 352.65867517 371.35657966 353.2154977 375 356 C375.66 356.66 376.32 357.32 377 358 C376.92566791 363.48342125 376.28910399 366.48353963 372.35766602 370.5625 C371.84776123 371.0575 371.33785645 371.5525 370.8125 372.0625 C369.71308926 373.18836048 368.61414987 374.31468139 367.515625 375.44140625 C366.93876953 376.02164551 366.36191406 376.60188477 365.76757812 377.19970703 C363.39333484 379.6178935 361.10398158 382.10935439 358.80957031 384.60302734 C353.19534599 390.69896404 347.45659535 396.64880709 341.52563477 402.4375 C338.76150577 405.15408869 336.15138956 407.94204522 333.62109375 410.87890625 C329.32318679 415.84812111 324.64840185 420.40233381 319.9609375 425 C315.9702528 428.94446055 312.20770266 433.00045689 308.54492188 437.25048828 C306.73381632 439.30143367 304.82014182 441.14926773 302.75 442.9375 C302.10546875 443.50339844 301.4609375 444.06929687 300.796875 444.65234375 C297.07772373 447.4417072 293.48833924 447.51505532 289 447 C284.48896613 444.59825112 281.00371085 441.14387739 277.71484375 437.28125 C274.09711961 433.08997247 270.35605421 429.03211793 266.5625 425 C265.90507813 424.29939453 265.24765625 423.59878906 264.5703125 422.87695312 C260.67977989 418.74374373 256.72819128 414.68993907 252.6796875 410.7109375 C250.91220338 408.91056995 249.26739543 407.03986656 247.625 405.125 C244.88378551 401.93317491 241.99314112 398.95697023 239 396 C235.41361817 392.45689276 232.04808984 388.82473233 228.77734375 384.9921875 C226.77437896 382.74710609 224.6543923 380.66239671 222.5 378.5625 C210.66526062 366.74806034 210.66526062 366.74806034 210.25 360.6875 C211 357 211 357 213.17456055 354.79394531 C216.44651463 352.7164962 218.12074347 352.53068192 221.95703125 352.609375 C223.62475586 352.62871094 223.62475586 352.62871094 225.32617188 352.6484375 C227.0519043 352.69871094 227.0519043 352.69871094 228.8125 352.75 C229.98232422 352.76804687 231.15214844 352.78609375 232.35742188 352.8046875 C235.2391178 352.8517356 238.11913797 352.91746291 241 353 C232.3538289 299.08568293 218.86989876 248.33691142 187 203 C186.25363281 201.9171875 185.50726562 200.834375 184.73828125 199.71875 C174.90693869 185.58242847 163.92602192 172.41098384 152 160 C151.53352051 159.51160645 151.06704102 159.02321289 150.58642578 158.52001953 C144.1220599 151.78413671 137.30892549 145.7934265 130 140 C128.90181772 139.09074513 127.80554788 138.17917679 126.7109375 137.265625 C111.88781873 124.99260955 95.67660605 114.5310667 78.92626953 105.08642578 C77.69204833 104.39031876 76.4609316 103.6886608 75.23388672 102.97998047 C38.45682574 81.77661055 -3.9968116 70.84666837 -46 67 C-46.79259216 66.91781219 -47.58518433 66.83562439 -48.40179443 66.75094604 C-55.16069693 66.07804346 -61.85038593 65.82548918 -68.640625 65.796875 C-69.72470642 65.79117493 -70.80878784 65.78547485 -71.92572021 65.77960205 C-74.21153813 65.77021193 -76.49736921 65.76364211 -78.78320312 65.75976562 C-82.19947439 65.75014233 -85.61512144 65.71909425 -89.03125 65.6875 C-103.59444553 65.61780955 -117.62306562 66.71274291 -132 69 C-132.91254044 69.14036682 -133.82508087 69.28073364 -134.76527405 69.425354 C-169.19531409 74.73265055 -202.64394102 85.9604423 -234 101 C-235.31943604 101.62793457 -235.31943604 101.62793457 -236.66552734 102.26855469 C-255.68790633 111.37311004 -273.6697969 121.99399088 -291 134 C-291.58442871 134.40428223 -292.16885742 134.80856445 -292.77099609 135.22509766 C-304.53405383 143.40316177 -315.9904059 152.00568399 -326.5234375 161.734375 C-328.57607564 163.61218276 -330.65388155 165.44552011 -332.75390625 167.26953125 C-337.10834588 171.07000972 -341.34830197 174.98263723 -345.5625 178.9375 C-346.27857422 179.60201172 -346.99464844 180.26652344 -347.73242188 180.95117188 C-352.46558497 185.3914732 -356.82055409 190.03541001 -361 195 C-361 191.49110262 -360.23954044 190.47405161 -358.375 187.5625 C-356.10265177 183.92674284 -354.11714768 180.27319047 -352.27734375 176.40234375 C-349.06424228 169.9158079 -345.25252962 163.97988905 -341.1875 158 C-340.47682373 156.94619141 -339.76614746 155.89238281 -339.03393555 154.80664062 C-334.22052086 147.70565708 -329.34053309 140.71724491 -324 134 C-323.2879541 133.09725342 -323.2879541 133.09725342 -322.56152344 132.17626953 C-306.75555672 112.18521331 -289.22873899 92.58751316 -269 77 C-267.87603878 76.07900917 -266.75515246 75.15425801 -265.63671875 74.2265625 C-256.20295984 66.4435848 -246.3149075 59.56274485 -236 53 C-235.37689941 52.60216309 -234.75379883 52.20432617 -234.11181641 51.79443359 C-164.38403541 7.66220019 -81.6340236 -9.24158758 0 0 Z " fill="#763BD7" transform="translate(529,125)"/>
<path d="M0 0 C0.83144531 -0.02835937 1.66289062 -0.05671875 2.51953125 -0.0859375 C8.60604669 0.96561275 12.5306958 5.52128155 16.5 9.9375 C16.9729248 10.4619873 17.44584961 10.98647461 17.93310547 11.52685547 C21.76594254 15.81288658 25.40207519 20.24826243 29.0078125 24.7265625 C31.16507399 27.34775119 33.40061 29.86654281 35.6875 32.375 C38.78305196 35.77098682 41.73901207 39.23671531 44.625 42.8125 C47.70086588 46.61587503 50.87503166 50.27582652 54.1875 53.875 C59.08214609 59.20286787 63.67222258 64.72445283 68.1875 70.375 C68.81269531 71.10847656 69.43789062 71.84195313 70.08203125 72.59765625 C72.81356247 75.91771411 74.09174265 77.80045588 74.8125 82.125 C74.07247059 85.97315292 73.22762578 86.98165489 70.1875 89.375 C67.53027344 89.82910156 67.53027344 89.82910156 64.546875 89.765625 C63.47695312 89.75273438 62.40703125 89.73984375 61.3046875 89.7265625 C60.19351563 89.69304687 59.08234375 89.65953125 57.9375 89.625 C56.81085938 89.60695313 55.68421875 89.58890625 54.5234375 89.5703125 C51.74393104 89.52320222 48.9661466 89.45743361 46.1875 89.375 C56.4864861 165.80383129 85.52460631 234.43831185 145.1875 285.375 C146.11046875 286.18710937 147.0334375 286.99921875 147.984375 287.8359375 C162.1916391 300.24212146 177.66922465 310.32487721 194.1875 319.375 C195.07711426 319.86500488 195.96672852 320.35500977 196.88330078 320.85986328 C235.56209494 342.01859875 276.55265586 354.6174748 320.1875 360.375 C321.45762939 360.55289063 321.45762939 360.55289063 322.75341797 360.734375 C347.88246649 364.17152554 375.09461423 363.95489596 400.1875 360.375 C400.90534668 360.27848145 401.62319336 360.18196289 402.36279297 360.08251953 C474.13399377 350.22268166 542.77823283 316.68083507 597.1875 269.375 C597.88875 268.77429688 598.59 268.17359375 599.3125 267.5546875 C611.9834876 256.62596069 624.38896265 245.17591514 635.1875 232.375 C635.1875 235.80449731 634.22099187 236.82710056 632.31054688 239.53466797 C631.05428139 241.59330476 630.28851594 243.615444 629.46875 245.8828125 C627.1036889 251.90889613 623.89270095 257.22972029 620.4375 262.6875 C619.78571777 263.72350342 619.13393555 264.75950684 618.46240234 265.8269043 C611.64711141 276.48848875 604.05499903 286.47637156 596.1875 296.375 C595.35987792 297.43687762 594.53292639 298.49927867 593.70703125 299.5625 C581.76825718 314.614763 567.852868 328.9798936 553.1875 341.375 C552.25679687 342.18324219 551.32609375 342.99148438 550.3671875 343.82421875 C530.8811846 360.67126886 509.65169069 374.82514497 487.1875 387.375 C486.20402588 387.9316333 486.20402588 387.9316333 485.20068359 388.49951172 C436.82380264 415.80355928 378.91566341 428.58538007 323.6875 428.625 C322.40826157 428.62601212 322.40826157 428.62601212 321.10317993 428.62704468 C269.20454679 428.5623505 217.91517701 415.88457628 171.1875 393.375 C170.33591309 392.9723291 169.48432617 392.5696582 168.60693359 392.15478516 C140.36114838 378.76100018 113.90786873 362.03928556 89.99755859 341.89257812 C88.31037663 340.47802146 86.60606068 339.08803456 84.89453125 337.703125 C76.95484578 331.19165457 69.64961844 324.047211 62.375 316.8125 C61.88667694 316.32944397 61.39835388 315.84638794 60.89523315 315.34869385 C54.19405562 308.70350166 48.0753379 301.75024577 42.1875 294.375 C41.16327352 293.16181318 40.13402125 291.95283405 39.09765625 290.75 C4.36637544 249.89994317 -19.79298439 198.75042272 -32.01416016 146.75170898 C-32.5895303 144.31808682 -33.18259856 141.89334157 -33.79443359 139.46899414 C-36.43457983 128.86486072 -38.14523933 118.26656918 -39.5625 107.4375 C-39.78442568 105.79742702 -40.0070793 104.15745237 -40.23046875 102.51757812 C-41.8125 90.80416166 -41.8125 90.80416166 -41.8125 88.375 C-43.13640747 88.4064209 -43.13640747 88.4064209 -44.48706055 88.43847656 C-47.77655569 88.50684095 -51.06529094 88.55688949 -54.35522461 88.59472656 C-55.77624457 88.61478421 -57.19718259 88.64203778 -58.61791992 88.67675781 C-60.66605895 88.72554011 -62.71310275 88.74802539 -64.76171875 88.765625 C-66.60769653 88.7970459 -66.60769653 88.7970459 -68.4909668 88.82910156 C-72.4192137 88.29205347 -74.02496252 87.13463324 -76.8125 84.375 C-78.33066358 81.33867283 -78.30857651 79.78552601 -77.8125 76.375 C-73.36544777 69.35067887 -67.23116588 63.57688786 -61.3125 57.8125 C-54.65983698 51.33184302 -54.65983698 51.33184302 -48.40625 44.47265625 C-43.39978268 38.6354119 -37.82747342 33.3334624 -32.35546875 27.93847656 C-27.14000734 22.78978993 -22.01967276 17.61770905 -17.25195312 12.04589844 C-15.43981361 9.94239049 -13.52935584 7.95886049 -11.5625 6 C-10.91796875 5.35289062 -10.2734375 4.70578125 -9.609375 4.0390625 C-6.39663134 1.0637825 -4.3065343 0.0661526 0 0 Z " fill="#763BD7" transform="translate(177.8125,437.625)"/>
<path d="M0 0 C1.000811 0.00007553 2.00162201 0.00015106 3.03276062 0.00022888 C4.11096573 0.00539017 5.18917084 0.01055145 6.30004883 0.01586914 C7.40560623 0.01728409 8.51116364 0.01869904 9.65022278 0.02015686 C13.18586925 0.02576025 16.7214527 0.03831335 20.25708008 0.05102539 C22.65226146 0.05603995 25.04744383 0.06060294 27.44262695 0.06469727 C33.31829955 0.07573078 39.19393531 0.09247223 45.06958008 0.11352539 C45.06958008 0.44352539 45.06958008 0.77352539 45.06958008 1.11352539 C30.21958008 1.11352539 15.36958008 1.11352539 0.06958008 1.11352539 C6.49459465 14.10370954 6.49459465 14.10370954 13.63208008 26.61352539 C14.13255859 27.43844482 14.63303711 28.26336426 15.14868164 29.11328125 C19.14406689 35.6726775 23.23439522 42.17235992 27.31958008 48.67602539 C49.41701421 83.87583089 71.79119495 120.49563748 85.06958008 160.11352539 C85.51744873 161.44697998 85.51744873 161.44697998 85.97436523 162.80737305 C86.25973145 163.69859863 86.54509766 164.58982422 86.83911133 165.50805664 C87.09926025 166.31734619 87.35940918 167.12663574 87.62744141 167.96044922 C88.06958008 170.11352539 88.06958008 170.11352539 87.06958008 173.11352539 C86.34254883 171.57245117 86.34254883 171.57245117 85.60083008 170.00024414 C76.25833354 150.53553185 64.23422146 136.15061072 43.85864258 127.79711914 C40.94870213 126.78350235 38.04625322 125.90786233 35.06958008 125.11352539 C34.27551758 124.88922852 33.48145508 124.66493164 32.66333008 124.43383789 C14.84758903 120.09867424 -4.20736709 123.90653159 -19.95776367 132.82836914 C-37.41688456 143.81615565 -47.88637217 159.11787988 -53.74291992 178.67602539 C-58.3571834 198.96287343 -53.41328778 218.5852884 -42.93041992 236.11352539 C-40.79672173 239.33230942 -38.51485528 242.24791304 -35.93041992 245.11352539 C-35.43541992 245.70004883 -34.94041992 246.28657227 -34.43041992 246.89086914 C-25.91928613 256.27439415 -13.86221054 262.40625885 -1.93041992 266.11352539 C-1.14924805 266.35844727 -0.36807617 266.60336914 0.43676758 266.85571289 C18.5553146 271.4323701 37.67749652 267.66101698 53.87817383 259.03540039 C58.6775002 256.14523078 62.91256708 252.85858214 67.06958008 249.11352539 C68.00350586 248.30141602 68.00350586 248.30141602 68.95629883 247.47290039 C74.36860106 242.4619599 78.15350345 236.3080466 82.06958008 230.11352539 C83.06958008 233.11352539 83.06958008 233.11352539 83.06958008 236.11352539 C82.40958008 236.11352539 81.74958008 236.11352539 81.06958008 236.11352539 C80.73958008 237.10352539 80.40958008 238.09352539 80.06958008 239.11352539 C79.40958008 239.11352539 78.74958008 239.11352539 78.06958008 239.11352539 C77.73958008 240.43352539 77.40958008 241.75352539 77.06958008 243.11352539 C76.40958008 243.11352539 75.74958008 243.11352539 75.06958008 243.11352539 C74.84915039 243.66911133 74.6287207 244.22469727 74.40161133 244.79711914 C72.63943567 247.86154777 70.38492791 249.81842984 67.75708008 252.17602539 C66.81219727 253.03325195 65.86731445 253.89047852 64.89379883 254.77368164 C62.3564822 256.87582916 59.93553594 258.50877092 57.06958008 260.11352539 C55.29768373 261.15338281 53.52683406 262.195026 51.75708008 263.23852539 C50.43256836 264.01583008 50.43256836 264.01583008 49.08129883 264.80883789 C48.41743164 265.23938477 47.75356445 265.66993164 47.06958008 266.11352539 C47.06958008 266.44352539 47.06958008 266.77352539 47.06958008 267.11352539 C48.40278687 267.14130053 49.73617721 267.1602588 51.06958008 267.17602539 C52.18333008 267.19342773 52.18333008 267.19342773 53.31958008 267.21118164 C56.21301516 267.15520086 56.21301516 267.15520086 59.62426758 266.62133789 C62.95798266 266.18001973 66.21494968 266.03845385 69.57739258 266.00805664 C85.41319958 265.84584451 100.87379807 264.36917661 116.56958008 262.30102539 C117.52946838 262.17627838 118.48935669 262.05153137 119.47833252 261.92300415 C130.83264966 260.43419766 142.08653047 258.6668034 153.30847168 256.37382507 C157.28814715 255.57250606 160.9840303 254.87304551 165.06958008 255.11352539 C165.19333008 254.39165039 165.31708008 253.66977539 165.44458008 252.92602539 C166.06007318 250.15630645 166.95402382 247.71648999 168.06958008 245.11352539 C169.25499691 248.6697759 168.8558175 249.23044836 167.38208008 252.53540039 C167.0134082 253.39649414 166.64473633 254.25758789 166.26489258 255.14477539 C165.47377036 256.94419062 164.67697124 258.74112161 163.87426758 260.53540039 C161.62612284 265.81775446 160.2241575 269.43189902 162.06958008 275.11352539 C163.95039611 278.73030787 166.09993515 282.13413215 168.31958008 285.55102539 C168.89321289 286.45401367 169.4668457 287.35700195 170.05786133 288.28735352 C172.21754447 291.68430388 174.3915997 295.07151919 176.58691406 298.44555664 C177.03881104 299.14938477 177.49070801 299.85321289 177.95629883 300.57836914 C178.35292725 301.1893042 178.74955566 301.80023926 179.15820312 302.4296875 C180.64812306 305.18242733 180.66371634 307.07682892 180.06958008 310.11352539 C177.06750219 315.23471708 173.26844062 319.20675332 169.07348633 323.37524414 C168.40292709 324.04771683 167.73236786 324.72018951 167.04148865 325.41304016 C165.62939974 326.82648417 164.21480557 328.2374293 162.79785156 329.64599609 C160.63543512 331.79768699 158.4839153 333.95985971 156.33325195 336.12329102 C154.95563768 337.49958391 153.57740325 338.87525638 152.19848633 340.25024414 C151.55875381 340.89402512 150.9190213 341.53780609 150.25990295 342.20109558 C146.1920845 346.22669023 142.6962964 349.64998722 136.88208008 350.67602539 C131.34077579 349.8584559 127.66794557 347.20752495 123.06958008 344.11352539 C121.82638736 343.28495479 120.58287837 342.45685862 119.33911133 341.62915039 C117.39152851 340.33220237 115.44656807 339.03233078 113.51098633 337.7175293 C111.70853444 336.49808201 109.89056296 335.30506328 108.06958008 334.11352539 C107.48611816 333.70779297 106.90265625 333.30206055 106.30151367 332.8840332 C101.74537318 329.92451066 99.27445274 330.04395604 94.06958008 331.11352539 C89.73821662 332.57664781 85.53396035 334.33643051 81.31616211 336.09619141 C79.31650944 336.92730163 77.30896518 337.73674749 75.30004883 338.54516602 C74.01956918 339.07317523 72.73960204 339.60242941 71.46020508 340.13305664 C70.30552734 340.608479 69.15084961 341.08390137 67.96118164 341.57373047 C63.6932462 343.84643131 62.50283392 345.74087514 61.05810547 350.31811523 C60.76411865 351.55770996 60.47013184 352.79730469 60.16723633 354.07446289 C59.83072586 355.44687787 59.49413479 356.81927309 59.1574707 358.19165039 C58.64295405 360.33894236 58.13241223 362.48712008 57.62451172 364.63598633 C57.12787535 366.72219449 56.61685999 368.8045113 56.10473633 370.88696289 C55.80962158 372.12881348 55.51450684 373.37066406 55.21044922 374.65014648 C53.3034808 380.43920147 50.73847828 384.54511987 45.17404175 387.39620972 C40.86923957 388.86352182 36.45238563 388.70203631 31.94848633 388.67993164 C30.88975815 388.68613022 29.83102997 388.6923288 28.74021912 388.69871521 C26.50878821 388.70579586 24.27730428 388.7026702 22.04589844 388.68994141 C18.64589474 388.6760817 15.24864839 388.71016871 11.84887695 388.74829102 C9.67374608 388.74924238 7.49861178 388.74738246 5.32348633 388.74243164 C3.81063805 388.76231895 3.81063805 388.76231895 2.26722717 388.78260803 C-4.28325812 388.69689457 -8.9375723 387.52158439 -13.93041992 383.11352539 C-18.28279776 376.27143989 -18.53856457 367.36699036 -19.73266602 359.49633789 C-20.02930879 357.56266646 -20.33909289 355.63102556 -20.64916992 353.69946289 C-20.82383789 352.55525879 -20.99850586 351.41105469 -21.1784668 350.23217773 C-22.13307246 346.27304373 -23.26100266 343.19960145 -26.76586914 340.91943359 C-27.45696777 340.6496167 -28.14806641 340.3797998 -28.86010742 340.10180664 C-29.65642578 339.78163574 -30.45274414 339.46146484 -31.27319336 339.1315918 C-32.15007812 338.79562988 -33.02696289 338.45966797 -33.93041992 338.11352539 C-34.87691406 337.72729004 -35.8234082 337.34105469 -36.79858398 336.94311523 C-39.87188538 335.69517766 -42.96068165 334.49471015 -46.05541992 333.30102539 C-47.10084961 332.88143555 -48.1462793 332.4618457 -49.22338867 332.02954102 C-56.92081947 329.00893072 -56.92081947 329.00893072 -64.93041992 330.11352539 C-67.87147596 331.77746697 -70.54523017 333.70846884 -73.24291992 335.73852539 C-74.74026955 336.83103664 -76.23766521 337.9234848 -77.73510742 339.01586914 C-78.81163574 339.81226807 -78.81163574 339.81226807 -79.90991211 340.62475586 C-82.53399002 342.55825358 -85.19553455 344.43503036 -87.86791992 346.30102539 C-88.61944336 346.83083008 -89.3709668 347.36063477 -90.14526367 347.90649414 C-93.8745104 350.42801983 -97.52718403 350.90683566 -101.93041992 350.11352539 C-107.56731293 347.28712628 -111.65405109 343.83225545 -116.07104492 339.37133789 C-117.04433746 338.40235062 -117.04433746 338.40235062 -118.03729248 337.41378784 C-119.39891079 336.05420009 -120.75679193 334.69086023 -122.11108398 333.32397461 C-124.17782969 331.24113579 -126.26013245 329.17482411 -128.34448242 327.10961914 C-129.6709664 325.78115307 -130.99651963 324.45175685 -132.32104492 323.12133789 C-132.93981506 322.50864044 -133.55858521 321.89594299 -134.19610596 321.26467896 C-138.66935735 316.71821699 -141.94989722 312.8876488 -141.90307617 306.21899414 C-141.09476073 301.63563888 -138.94531026 298.23269116 -136.36791992 294.42602539 C-135.92335449 293.73831055 -135.47878906 293.0505957 -135.02075195 292.34204102 C-133.2643615 289.62562422 -131.47827105 286.93007735 -129.67602539 284.24389648 C-128.53827996 282.54266051 -127.42148308 280.82902702 -126.30541992 279.11352539 C-125.6531543 278.14415039 -125.00088867 277.17477539 -124.32885742 276.17602539 C-121.94263458 270.95033067 -122.39584194 266.80911123 -124.06713867 261.50805664 C-124.57889648 260.32598633 -125.0906543 259.14391602 -125.61791992 257.92602539 C-126.17411222 256.62588685 -126.72877057 255.32509116 -127.28198242 254.02368164 C-127.56074219 253.37544434 -127.83950195 252.72720703 -128.12670898 252.05932617 C-129.79443397 248.02172954 -131.15513433 243.85832251 -132.55932617 239.72290039 C-134.2695984 236.46802333 -135.66557917 235.76152471 -138.93041992 234.11352539 C-142.18621375 233.20410012 -142.18621375 233.20410012 -145.73510742 232.57055664 C-147.0543866 232.29907299 -148.37338947 232.02624374 -149.69213867 231.75219727 C-151.74571379 231.3348736 -153.79956453 230.92711728 -155.85961914 230.54296875 C-157.86665196 230.16385185 -159.8622965 229.74528551 -161.86010742 229.32055664 C-163.64263916 228.97214722 -163.64263916 228.97214722 -165.46118164 228.61669922 C-170.3591549 226.49447393 -173.30021751 223.77166872 -175.93041992 219.11352539 C-176.88058497 215.19246167 -176.89107387 211.44263706 -176.82495117 207.42211914 C-176.82927658 206.31804214 -176.83360199 205.21396515 -176.83805847 204.07643127 C-176.83843842 201.75255467 -176.82146272 199.4286174 -176.78808594 197.10498047 C-176.74299932 193.5572727 -176.76736853 190.01479742 -176.79956055 186.46704102 C-176.7913411 184.20204819 -176.77910694 181.93706564 -176.76245117 179.67211914 C-176.7714595 178.61778183 -176.78046783 177.56344452 -176.78974915 176.47715759 C-176.65471001 170.41028585 -175.8597146 166.85197385 -171.61421204 162.41236877 C-164.63828297 157.03127735 -153.67540626 156.56167101 -145.28588867 155.00805664 C-144.25334961 154.80567383 -143.22081055 154.60329102 -142.15698242 154.39477539 C-141.22450684 154.22010742 -140.29203125 154.04543945 -139.33129883 153.86547852 C-136.58501164 153.00534383 -135.6294979 152.41965979 -133.93041992 150.11352539 C-132.95181772 148.00646092 -132.06287053 145.85700877 -131.23120117 143.68774414 C-130.99128952 143.06253372 -130.75137787 142.4373233 -130.50419617 141.79316711 C-130.00019639 140.47254266 -129.50034728 139.15032763 -129.00439453 137.82666016 C-128.24757806 135.81341673 -127.47181642 133.80822291 -126.6940918 131.80297852 C-126.20529475 130.51500928 -125.71762731 129.22661066 -125.23120117 127.93774414 C-124.78945557 126.77331787 -124.34770996 125.6088916 -123.89257812 124.40917969 C-122.70126985 120.32862388 -122.15288563 117.00710932 -123.79736328 113.00219727 C-124.20092041 112.36862305 -124.60447754 111.73504883 -125.02026367 111.08227539 C-125.47111328 110.36096436 -125.92196289 109.63965332 -126.38647461 108.89648438 C-126.87535156 108.14310791 -127.36422852 107.38973145 -127.86791992 106.61352539 C-128.36066406 105.82469971 -128.8534082 105.03587402 -129.36108398 104.22314453 C-131.72090096 100.46526879 -134.14655136 96.76996833 -136.69995117 93.14086914 C-137.32945679 92.2262793 -137.32945679 92.2262793 -137.97167969 91.29321289 C-139.10857261 89.65458072 -140.27635397 88.03750268 -141.44604492 86.42211914 C-143.08729607 82.7638567 -143.68628002 80.61918141 -143.03540039 76.68115234 C-140.38887459 70.53145905 -134.65781415 66.01510609 -129.86791992 61.48852539 C-128.73397443 60.38619096 -127.60179556 59.28203617 -126.47143555 58.17602539 C-120.78369656 52.63946554 -114.98730138 47.24663004 -108.93041992 42.11352539 C-108.35751221 41.62303711 -107.78460449 41.13254883 -107.19433594 40.62719727 C-103.19050764 37.23470876 -100.72863916 35.54394003 -95.31323242 35.66040039 C-86.59098153 37.31905794 -78.84679505 45.41775909 -72.14501953 50.93676758 C-64.98515659 56.96884134 -64.98515659 56.96884134 -55.93041992 58.11352539 C-52.56140665 57.10289727 -52.56140665 57.10289727 -49.10620117 55.62915039 C-48.47812057 55.37228455 -47.85003998 55.1154187 -47.20292664 54.85076904 C-45.88392625 54.30785942 -44.56711353 53.75960712 -43.25244141 53.20629883 C-41.24470001 52.36427194 -39.22818289 51.54664154 -37.2097168 50.73071289 C-35.92461456 50.19829752 -34.64008796 49.66449012 -33.35620117 49.12915039 C-31.61463745 48.40646973 -31.61463745 48.40646973 -29.83789062 47.66918945 C-26.78934774 46.03804366 -25.55653119 45.12474499 -23.93041992 42.11352539 C-22.93102768 38.93763164 -22.93102768 38.93763164 -22.21166992 35.37133789 C-22.06765747 34.72534637 -21.92364502 34.07935486 -21.77526855 33.41378784 C-21.31748334 31.3573221 -20.87267894 29.29838173 -20.43041992 27.23852539 C-19.98745323 25.18600034 -19.54139867 23.13439585 -19.08557129 21.08468628 C-18.6710801 19.21991069 -18.2681964 17.3525662 -17.8659668 15.48510742 C-15.99402952 8.7389034 -13.44832527 5.13699804 -7.93041992 1.11352539 C-4.97643234 0.12886286 -3.0779297 -0.00775297 0 0 Z " fill="#753CD1" transform="translate(473.930419921875,304.886474609375)"/>
<path d="M0 0 C3.69592091 4.31190773 4.61232994 7.83522374 5.50390625 13.4375 C5.60968491 14.08823486 5.71546356 14.73896973 5.82444763 15.40942383 C6.15997274 17.48034498 6.48660127 19.5525442 6.8125 21.625 C7.14364888 23.69714906 7.47665481 25.76898314 7.81126404 27.84057617 C8.11400496 29.71999275 8.41174656 31.60021259 8.70922852 33.48046875 C8.88768311 34.51816406 9.0661377 35.55585938 9.25 36.625 C9.35828125 37.39545654 9.4665625 38.16591309 9.578125 38.9597168 C10.1032915 40.77864347 10.1032915 40.77864347 11.92749023 41.50708008 C12.65137939 41.69681396 13.37526855 41.88654785 14.12109375 42.08203125 C17.75697648 43.14438512 21.18291732 44.38034932 24.66015625 45.88671875 C25.58763672 46.28310547 26.51511719 46.67949219 27.47070312 47.08789062 C29.37280671 47.90756001 31.27125221 48.73576843 33.16601562 49.57226562 C38.82038997 51.96858711 43.10506345 53.51741817 49.25 52.625 C51.89044537 51.44708634 54.11750284 49.90130133 56.4375 48.1875 C57.07824463 47.74027588 57.71898926 47.29305176 58.37915039 46.83227539 C61.56478699 44.60103368 64.69564926 42.2971182 67.828125 39.9921875 C78.58301609 32.15714148 78.58301609 32.15714148 85.25 32.625 C90.1102028 34.6113221 93.46354815 37.44520079 97.05859375 41.17578125 C97.58840347 41.71220749 98.1182132 42.24863373 98.66407776 42.80131531 C100.34587519 44.50635776 102.01714672 46.22125126 103.6875 47.9375 C105.89070674 50.18737266 108.0983507 52.43282178 110.30859375 54.67578125 C110.83338821 55.20957397 111.35818268 55.7433667 111.89888 56.29333496 C115.52624757 59.95956293 119.2857524 63.33238113 123.25 66.625 C126.0906508 70.10708808 126.66817308 72.89863363 126.6003418 77.38671875 C125.93509323 81.63689219 123.53070206 84.90939622 121.1875 88.4375 C120.68814941 89.22286133 120.18879883 90.00822266 119.67431641 90.81738281 C117.48717022 94.24656848 115.24332942 97.63737583 112.99609375 101.02734375 C112.37863281 101.96707031 111.76117187 102.90679687 111.125 103.875 C110.58617187 104.66390625 110.04734375 105.4528125 109.4921875 106.265625 C107.49071129 110.06717102 106.90185395 113.28632969 107.9909668 117.47412109 C108.38968994 118.43914551 108.78841309 119.40416992 109.19921875 120.3984375 C109.85374023 122.0071875 109.85374023 122.0071875 110.52148438 123.6484375 C110.98876953 124.75445312 111.45605469 125.86046875 111.9375 127 C112.38544922 128.09828125 112.83339844 129.1965625 113.29492188 130.328125 C117.10943354 141.23051402 117.10943354 141.23051402 124.25 149.625 C126.52204676 150.21755181 128.81385255 150.73560417 131.11328125 151.2109375 C132.48900854 151.50485167 133.86465716 151.79913425 135.24023438 152.09375 C137.39833744 152.54834531 139.55711529 152.99889463 141.7175293 153.44238281 C143.81036013 153.87470467 145.89926486 154.32309506 147.98828125 154.7734375 C149.86060425 155.16281494 149.86060425 155.16281494 151.77075195 155.56005859 C157.19586745 157.22059847 161.23373182 159.78278037 164.25 164.625 C164.64440918 166.96383667 164.64440918 166.96383667 164.66992188 169.57373047 C164.68583374 170.55509979 164.70174561 171.53646912 164.71813965 172.5475769 C164.71844177 174.12890915 164.71844177 174.12890915 164.71875 175.7421875 C164.72636353 176.83209991 164.73397705 177.92201233 164.74182129 179.04495239 C164.75262315 181.34976919 164.75547506 183.65463494 164.75097656 185.95947266 C164.75000543 189.48032643 164.79160443 192.99899278 164.8359375 196.51953125 C164.84114545 198.76041213 164.84383268 201.00130057 164.84375 203.2421875 C164.86014526 204.29236053 164.87654053 205.34253357 164.89343262 206.42453003 C164.81653699 214.58620144 164.81653699 214.58620144 161.90039062 218.21142578 C157.70479898 222.03213498 154.34718178 223.16540302 148.9140625 224.140625 C147.44250794 224.42474531 145.97115961 224.70993542 144.5 224.99609375 C142.18894913 225.43897977 139.87740548 225.87456693 137.56152344 226.29150391 C135.32009574 226.69855789 133.0862804 227.13590007 130.8515625 227.578125 C130.16494537 227.69399963 129.47832825 227.80987427 128.77090454 227.92926025 C123.23987563 229.06192046 121.31040815 231.13583187 118.25 235.625 C117.53856912 237.60951771 116.86008664 239.60702112 116.25 241.625 C115.59 241.955 114.93 242.285 114.25 242.625 C113.99605469 243.89988281 113.74210938 245.17476562 113.48046875 246.48828125 C112.68505859 248.67822266 112.68505859 248.67822266 111.25 250.625 C106.87743114 252.54267789 102.25590452 253.12276471 97.5625 253.8125 C96.13979687 254.04636308 94.71743889 254.28233426 93.29541016 254.52026367 C88.62216197 255.28372562 83.93762579 255.95662766 79.25 256.625 C77.60169443 256.86600018 75.95341992 257.10721288 74.30517578 257.34863281 C54.5676294 260.20784721 35.04058609 262.2056535 15.08984375 262.484375 C10.69937484 262.54806486 6.57709308 262.92072053 2.25 263.625 C0.60514934 263.68556151 -1.04172957 263.71281955 -2.6875 263.6875 C-3.45964844 263.67847656 -4.23179687 263.66945313 -5.02734375 263.66015625 C-5.88005859 263.64275391 -5.88005859 263.64275391 -6.75 263.625 C-6.75 262.635 -6.75 261.645 -6.75 260.625 C-5.1721875 259.75875 -5.1721875 259.75875 -3.5625 258.875 C-0.36492283 257.0542468 2.39632383 254.95299898 5.25 252.625 C6.01570312 252.18414063 6.78140625 251.74328125 7.5703125 251.2890625 C10.51498983 249.46044363 12.93605777 247.39230978 15.5 245.0625 C16.37140625 244.27746094 17.2428125 243.49242187 18.140625 242.68359375 C20.29702648 240.80408195 20.29702648 240.80408195 21.25 238.625 C21.91 238.625 22.57 238.625 23.25 238.625 C23.3325 238.0475 23.415 237.47 23.5 236.875 C24.25 234.625 24.25 234.625 26.3125 232.625 C28.71386348 230.61027046 28.71386348 230.61027046 28.25 226.625 C27.87230469 227.29144531 27.49460937 227.95789063 27.10546875 228.64453125 C20.1036732 240.36884933 11.15173534 248.97608334 -0.75 255.625 C-1.91402344 256.31529297 -1.91402344 256.31529297 -3.1015625 257.01953125 C-19.04967734 265.8469995 -38.58335676 267.23483794 -56.02978516 262.53222656 C-67.27149482 259.14524666 -77.03223681 253.50597964 -85.75 245.625 C-86.45769531 244.99851562 -87.16539062 244.37203125 -87.89453125 243.7265625 C-101.77010502 230.72650295 -109.53284204 211.3434279 -110.2253418 192.48950195 C-110.41722188 173.60356211 -104.05768843 155.24494025 -90.81152344 141.57836914 C-89.47247542 140.24555033 -88.11183146 138.9345307 -86.75 137.625 C-86.09386719 136.96113281 -85.43773437 136.29726563 -84.76171875 135.61328125 C-70.78013663 122.29036039 -52.09623472 116.97791645 -33.1328125 117.35546875 C-12.90813294 118.27067382 5.00848945 127.84201281 18.875 142.25 C24.95050841 149.19960465 29.2046609 157.37169511 33.25 165.625 C18.58836182 119.14094259 -6.46554868 77.47687702 -32.26782227 36.46582031 C-53.75 2.16126041 -53.75 2.16126041 -53.75 -3.375 C-47.4515482 -3.56917259 -41.15278115 -3.74644062 -34.85351562 -3.91210938 C-32.7118052 -3.97041365 -30.57019546 -4.03254973 -28.42871094 -4.09863281 C-25.34588963 -4.19309252 -22.26296593 -4.2736473 -19.1796875 -4.3515625 C-18.22633514 -4.38375885 -17.27298279 -4.4159552 -16.29074097 -4.4491272 C-9.88209772 -4.59268826 -5.04834819 -4.35993707 0 0 Z " fill="#B582F6" transform="translate(527.75,309.375)"/>
<path d="M0 0 C0.85932129 0.09120117 1.71864258 0.18240234 2.60400391 0.27636719 C79.63913092 8.7157334 154.2869189 45.74005526 210.46386719 98.56542969 C212.16436132 100.15349446 213.88170256 101.72199816 215.6015625 103.2890625 C226.59647406 113.33606211 226.59647406 113.33606211 231.3203125 119.01171875 C233.33954689 121.40192876 235.48374158 123.65599942 237.625 125.9375 C243.63983305 132.5438068 249.00532964 139.60207383 254.33544922 146.76611328 C255.42009311 148.2217442 256.51001803 149.67345951 257.60595703 151.12060547 C289.53698801 193.29867502 310.31763129 242.09863715 323.6875 293 C324.02668457 294.27496338 324.36586914 295.54992676 324.71533203 296.86352539 C326.38692642 303.46087525 327.29484408 309.20487258 327 316 C327.20625 317.299375 327.4125 318.59875 327.625 319.9375 C327.810625 321.4534375 327.810625 321.4534375 328 323 C327.34 323.66 326.68 324.32 326 325 C325.67 324.01 325.34 323.02 325 322 C324.34 321.67 323.68 321.34 323 321 C322.15307099 318.77403998 321.53153701 316.51636413 320.87890625 314.2265625 C320.17346567 311.97986414 320.17346567 311.97986414 318.62084961 310.6940918 C316.56920565 308.54973912 315.49671626 306.3303574 314.1875 303.66796875 C313.66929687 302.62189453 313.15109375 301.57582031 312.6171875 300.49804688 C311.81667969 298.85932617 311.81667969 298.85932617 311 297.1875 C310.19949219 295.56618164 310.19949219 295.56618164 309.3828125 293.91210938 C308.38396286 291.88832074 307.38758859 289.86330708 306.39453125 287.83666992 C305.40192358 285.81756828 304.3951801 283.80538962 303.37890625 281.7980957 C302 279 302 279 301.125 276.5 C299.89516878 273.76704173 298.19695676 271.90543791 296.2265625 269.67578125 C294.47592604 267.28398813 293.69410272 264.75629763 292.87109375 261.9296875 C292.07473728 259.85974657 292.07473728 259.85974657 290.18359375 258.1953125 C287.44288117 255.43989126 285.60293903 252.31280227 283.625 249 C274.67388372 234.36403796 264.61162443 220.46991681 254 207 C253.10814585 205.84078838 252.21756203 204.68059851 251.328125 203.51953125 C246.07120039 196.6904684 240.6046631 190.19576103 234.703125 183.9140625 C232.74690854 181.80519331 230.87412582 179.68337617 229.01171875 177.49609375 C224.06842422 171.82130438 218.7040536 166.55491319 213.37573242 161.24536133 C211.56639067 159.44137915 209.76245681 157.63211335 207.95898438 155.82226562 C202.14135147 150.00102643 196.29259546 144.31219108 190 139 C188.95111459 138.07519182 187.90417193 137.14817464 186.859375 136.21875 C125.14526879 81.98754103 49.39283982 48.86281004 -32 39 C-32.94520508 38.88140625 -33.89041016 38.7628125 -34.86425781 38.640625 C-122.00704215 28.07405137 -211.9962631 53.96796297 -281.12841797 107.65283203 C-289.18307481 113.98029707 -296.91377006 120.5916343 -304.3984375 127.58203125 C-306.60176288 129.6298667 -308.83881583 131.60876891 -311.125 133.5625 C-317.98803386 139.52663338 -324.33093601 146.0466973 -330.234375 152.95703125 C-332.2129461 155.2463956 -334.26252331 157.46191342 -336.3125 159.6875 C-340.35024402 164.1477181 -344.03166428 168.81229738 -347.63793945 173.62182617 C-349.61870519 176.25571581 -351.57777928 178.75749243 -354 181 C-352.47425245 175.33293768 -349.64619184 170.87870659 -346.5 166 C-345.96391113 165.16130371 -345.42782227 164.32260742 -344.87548828 163.45849609 C-324.33825566 131.57318053 -299.1504923 100.23284688 -269 77 C-267.87603878 76.07900917 -266.75515246 75.15425801 -265.63671875 74.2265625 C-256.20295984 66.4435848 -246.3149075 59.56274485 -236 53 C-235.37689941 52.60216309 -234.75379883 52.20432617 -234.11181641 51.79443359 C-164.38403541 7.66220019 -81.6340236 -9.24158758 0 0 Z " fill="#B583F5" transform="translate(529,125)"/>
<path d="M0 0 C0.66 0 1.32 0 2 0 C3.29543103 3.04007685 4.58565977 6.08233552 5.875 9.125 C6.23980469 9.9809375 6.60460937 10.836875 6.98046875 11.71875 C8.8342619 16.1004429 10.58343133 20.45206901 12 25 C12.66 25 13.32 25 14 25 C18.46155318 33.34475687 22.88114555 41.69830514 27.0625 50.1875 C38.65553721 73.51172102 53.16047283 95.35868786 69 116 C69.72413086 116.95156982 69.72413086 116.95156982 70.46289062 117.92236328 C79.34457712 129.57103672 88.67721225 141.03392917 99.22265625 151.22265625 C101.79270704 153.79270704 104.12257542 156.55233458 106.45703125 159.3359375 C108.09388333 161.23084911 108.09388333 161.23084911 111 163 C111 163.66 111 164.32 111 165 C111.86431641 165.36931641 111.86431641 165.36931641 112.74609375 165.74609375 C115.3624153 167.20162099 117.00891836 168.88608731 119.0625 171.0625 C123.18799375 175.28236779 127.5347574 179.01579701 132.140625 182.69921875 C134.99633345 184.99704973 137.77667313 187.36819499 140.5625 189.75 C189.08488161 230.10216054 251.93718558 258.69605517 314 270 C315.16241211 270.21495117 316.32482422 270.42990234 317.52246094 270.65136719 C393.38778351 284.49713421 472.36327634 276.59488404 541.13867188 239.98144531 C543.11663039 238.93850287 545.11087906 237.93266749 547.109375 236.9296875 C579.88164939 220.30421282 611.33633709 195.0829488 635.18359375 167.0859375 C636.47524325 165.60262388 637.8053468 164.15241982 639.16015625 162.7265625 C648.89854051 152.43396125 657.2527816 140.84980942 665 129 C665.33 129.66 665.66 130.32 666 131 C658.16885139 148.7073125 645.64245005 165.18667548 633.50878906 180.13720703 C632.20681994 181.74465435 630.92560547 183.36887144 629.6484375 184.99609375 C617.65180181 200.11544921 603.73542231 214.54568399 589 227 C588.06929687 227.80824219 587.13859375 228.61648438 586.1796875 229.44921875 C566.6936846 246.29626886 545.46419069 260.45014497 523 273 C522.01652588 273.5566333 522.01652588 273.5566333 521.01318359 274.12451172 C472.63630264 301.42855928 414.72816341 314.21038007 359.5 314.25 C358.22076157 314.25101212 358.22076157 314.25101212 356.91567993 314.25204468 C305.01704679 314.1873505 253.72767701 301.50957628 207 279 C206.14841309 278.5973291 205.29682617 278.1946582 204.41943359 277.77978516 C176.17364838 264.38600018 149.72036873 247.66428556 125.81005859 227.51757812 C124.12287663 226.10302146 122.41856068 224.71303456 120.70703125 223.328125 C112.76734578 216.81665457 105.46211844 209.672211 98.1875 202.4375 C97.69917694 201.95444397 97.21085388 201.47138794 96.70773315 200.97369385 C90.00655562 194.32850166 83.8878379 187.37524577 78 180 C76.97577352 178.78681318 75.94652125 177.57783405 74.91015625 176.375 C50.35467525 147.49346236 10 93.21188077 10 54 C10.66 54 11.32 54 12 54 C12 53.01 12 52.02 12 51 C11.34 51 10.68 51 10 51 C8.875 46.25 8.875 46.25 10 44 C9.34 44 8.68 44 8 44 C7.896875 43.030625 7.79375 42.06125 7.6875 41.0625 C7.15325433 37.2376107 5.96713112 33.7816469 4.703125 30.14453125 C3.36702496 26.06942611 2.63434415 23.09696754 4 19 C3.34 19 2.68 19 2 19 C2.33 17.35 2.66 15.7 3 14 C2.34 13.67 1.68 13.34 1 13 C1.33 11.68 1.66 10.36 2 9 C1.34 9 0.68 9 0 9 C0 6 0 3 0 0 Z " fill="#AB77F1" transform="translate(142,552)"/>
<path d="M0 0 C1 3 1 3 1 6 C0.34 6 -0.32 6 -1 6 C-1.33 6.99 -1.66 7.98 -2 9 C-2.66 9 -3.32 9 -4 9 C-4.33 10.32 -4.66 11.64 -5 13 C-5.66 13 -6.32 13 -7 13 C-7.33064453 13.83337891 -7.33064453 13.83337891 -7.66796875 14.68359375 C-9.4301444 17.74802238 -11.68465217 19.70490445 -14.3125 22.0625 C-15.25738281 22.91972656 -16.20226562 23.77695312 -17.17578125 24.66015625 C-19.71309788 26.76230377 -22.13404413 28.39524553 -25 30 C-26.77189635 31.03985742 -28.54274601 32.08150061 -30.3125 33.125 C-31.19550781 33.64320313 -32.07851563 34.16140625 -32.98828125 34.6953125 C-33.65214844 35.12585938 -34.31601562 35.55640625 -35 36 C-35 36.33 -35 36.66 -35 37 C-33.66679321 37.02777514 -32.33340287 37.04673341 -31 37.0625 C-30.2575 37.07410156 -29.515 37.08570313 -28.75 37.09765625 C-25.85656491 37.04167547 -25.85656491 37.04167547 -22.4453125 36.5078125 C-19.11159742 36.06649434 -15.8546304 35.92492846 -12.4921875 35.89453125 C3.34361951 35.73231912 18.80421799 34.25565122 34.5 32.1875 C35.45988831 32.06275299 36.41977661 31.93800598 37.40875244 31.80947876 C48.76306958 30.32067227 60.0169504 28.55327801 71.2388916 26.26029968 C75.21856707 25.45898067 78.91445022 24.75952012 83 25 C83.185625 23.9171875 83.185625 23.9171875 83.375 22.8125 C83.9904931 20.04278106 84.88444374 17.6029646 86 15 C87.18541684 18.55625051 86.78623742 19.11692297 85.3125 22.421875 C84.94382812 23.28296875 84.57515625 24.1440625 84.1953125 25.03125 C83.40419029 26.83066523 82.60739117 28.62759622 81.8046875 30.421875 C79.55654276 35.70422907 78.15457742 39.31837363 80 45 C81.88081603 48.61678248 84.03035507 52.02060676 86.25 55.4375 C86.82363281 56.34048828 87.39726563 57.24347656 87.98828125 58.17382812 C90.1479644 61.57077849 92.32201962 64.9579938 94.51733398 68.33203125 C95.19517944 69.38777344 95.19517944 69.38777344 95.88671875 70.46484375 C96.28334717 71.07577881 96.67997559 71.68671387 97.08862305 72.31616211 C98.57854298 75.06890194 98.59413627 76.96330353 98 80 C94.99792211 85.12119169 91.19886054 89.09322793 87.00390625 93.26171875 C86.33334702 93.93419144 85.66278778 94.60666412 84.97190857 95.29951477 C83.55981966 96.71295878 82.14522549 98.12390391 80.72827148 99.5324707 C78.56585504 101.6841616 76.41433522 103.84633432 74.26367188 106.00976562 C72.8860576 107.38605851 71.50782317 108.76173099 70.12890625 110.13671875 C69.48917374 110.78049973 68.84944122 111.4242807 68.19032288 112.08757019 C64.12250442 116.11316484 60.62671632 119.53646183 54.8125 120.5625 C49.27119571 119.74493051 45.59836549 117.09399956 41 114 C39.75680729 113.1714294 38.51329829 112.34333323 37.26953125 111.515625 C35.32194843 110.21867698 33.37698799 108.91880539 31.44140625 107.60400391 C29.63895436 106.38455662 27.82098288 105.19153789 26 104 C25.12480713 103.39140137 25.12480713 103.39140137 24.23193359 102.77050781 C19.6757931 99.81098527 17.20487266 99.93043065 12 101 C7.66863654 102.46312242 3.46438028 104.22290512 -0.75341797 105.98266602 C-2.75307064 106.81377624 -4.76061489 107.6232221 -6.76953125 108.43164062 C-8.05001089 108.95964984 -9.32997804 109.48890402 -10.609375 110.01953125 C-11.76405273 110.49495361 -12.91873047 110.97037598 -14.10839844 111.46020508 C-18.37633388 113.73290592 -19.56674615 115.62734975 -21.01147461 120.20458984 C-21.30546143 121.44418457 -21.59944824 122.6837793 -21.90234375 123.9609375 C-22.23885422 125.33335248 -22.57544528 126.7057477 -22.91210938 128.078125 C-23.42662602 130.22541697 -23.93716785 132.37359469 -24.44506836 134.52246094 C-24.94170473 136.6086691 -25.45272008 138.69098591 -25.96484375 140.7734375 C-26.2599585 142.01528809 -26.55507324 143.25713867 -26.85913086 144.53662109 C-28.73312823 150.22558466 -31.44365592 154.4992803 -36.89013672 157.29003906 C-41.22185353 158.74764523 -45.54536165 158.54420384 -50.0625 158.375 C-51.02994141 158.39304687 -51.99738281 158.41109375 -52.99414062 158.4296875 C-55.96431026 158.33210492 -58.22619698 158.07669381 -61 157 C-63.75033632 154.03292008 -65.26676345 150.62707715 -67 147 C-68.09324794 145.14430117 -69.20720907 143.30067464 -70.33984375 141.46875 C-78.84284833 127.37417906 -87.18521088 113.1971758 -95.34423828 98.90039062 C-96.37617745 97.09274725 -97.41057834 95.28650424 -98.44873047 93.48242188 C-111.31778039 71.10228802 -125.92538434 45.36964464 -129.49609375 19.390625 C-129.93400516 16.44405831 -130.57482125 14.17136679 -131.6875 11.4375 C-132.89909896 8.03570291 -133.03014516 7.13217495 -132.1875 3.4375 C-131.795625 2.633125 -131.40375 1.82875 -131 1 C-129.02107786 3.46597393 -127.04971491 5.9362419 -125.10546875 8.4296875 C-114.77525353 21.89017167 -114.77525353 21.89017167 -100 29 C-98.53945532 29.72622277 -97.1023249 30.50079761 -95.6875 31.3125 C-79.42121639 39.56559965 -60.15365566 40.55712016 -42.78515625 35.32421875 C-32.29388515 31.81994566 -23.22634551 26.41112208 -15 19 C-14.37738281 18.45859375 -13.75476563 17.9171875 -13.11328125 17.359375 C-7.70097902 12.34843451 -3.91607662 6.19452121 0 0 Z " fill="#9058E4" transform="translate(556,535)"/>
<path d="M0 0 C14.99894221 12.96390985 24.5193532 29.46627164 27.5625 49.125 C28.32459516 60.78130798 27.04871862 70.99825346 23.5625 82.125 C23.28535156 83.03765625 23.00820313 83.9503125 22.72265625 84.890625 C17.10097723 100.95256506 4.08584546 113.92803223 -10.4375 122.125 C-11.21480469 122.58648438 -11.99210938 123.04796875 -12.79296875 123.5234375 C-28.74690508 132.34219627 -48.26779972 133.73566195 -65.71728516 129.03222656 C-76.95899482 125.64524666 -86.71973681 120.00597964 -95.4375 112.125 C-96.14519531 111.49851562 -96.85289062 110.87203125 -97.58203125 110.2265625 C-111.45760502 97.22650295 -119.22034204 77.8434279 -119.9128418 58.98950195 C-120.10472188 40.10356211 -113.74518843 21.74494025 -100.49902344 8.07836914 C-99.15997542 6.74555033 -97.79933146 5.4345307 -96.4375 4.125 C-95.78136719 3.46113281 -95.12523437 2.79726563 -94.44921875 2.11328125 C-68.45944266 -22.65213708 -27.50809695 -20.97067885 0 0 Z " fill="#FBFEFE" transform="translate(537.4375,442.875)"/>
<path d="M0 0 C1.000811 0.00007553 2.00162201 0.00015106 3.03276062 0.00022888 C4.11096573 0.00539017 5.18917084 0.01055145 6.30004883 0.01586914 C7.40560623 0.01728409 8.51116364 0.01869904 9.65022278 0.02015686 C13.18586925 0.02576025 16.7214527 0.03831335 20.25708008 0.05102539 C22.65226146 0.05603995 25.04744383 0.06060294 27.44262695 0.06469727 C33.31829955 0.07573078 39.19393531 0.09247223 45.06958008 0.11352539 C45.06958008 0.44352539 45.06958008 0.77352539 45.06958008 1.11352539 C30.21958008 1.11352539 15.36958008 1.11352539 0.06958008 1.11352539 C6.49459465 14.10370954 6.49459465 14.10370954 13.63208008 26.61352539 C14.13255859 27.43844482 14.63303711 28.26336426 15.14868164 29.11328125 C19.14406689 35.6726775 23.23439522 42.17235992 27.31958008 48.67602539 C49.41701421 83.87583089 71.79119495 120.49563748 85.06958008 160.11352539 C85.51744873 161.44697998 85.51744873 161.44697998 85.97436523 162.80737305 C86.40241455 164.14421143 86.40241455 164.14421143 86.83911133 165.50805664 C87.09926025 166.31734619 87.35940918 167.12663574 87.62744141 167.96044922 C88.06958008 170.11352539 88.06958008 170.11352539 87.06958008 173.11352539 C86.34254883 171.57245117 86.34254883 171.57245117 85.60083008 170.00024414 C75.9945969 149.98604729 63.35466211 135.06048848 42.06958008 127.11352539 C42.06958008 126.45352539 42.06958008 125.79352539 42.06958008 125.11352539 C41.20002686 124.8420166 40.33047363 124.57050781 39.43457031 124.29077148 C36.20173581 123.15976024 33.28237323 121.82423066 30.22973633 120.27758789 C29.10019531 119.71378418 27.9706543 119.14998047 26.80688477 118.5690918 C26.20952515 118.27077454 25.61216553 117.97245728 24.9967041 117.6651001 C-25.30607612 92.66848777 -81.00260619 76.92828007 -136.93041992 72.11352539 C-136.36991709 68.2585054 -134.68944284 66.50991663 -131.95776367 63.81274414 C-131.13985352 62.99999023 -130.32194336 62.18723633 -129.47924805 61.34985352 C-128.61750977 60.50874023 -127.75577148 59.66762695 -126.86791992 58.80102539 C-126.03325195 57.97151367 -125.19858398 57.14200195 -124.33862305 56.28735352 C-119.35939965 51.37022487 -114.26093464 46.64675697 -108.93041992 42.11352539 C-108.35364502 41.61957275 -107.77687012 41.12562012 -107.18261719 40.61669922 C-103.18240408 37.22867176 -100.72241419 35.5440739 -95.31323242 35.66040039 C-86.59098153 37.31905794 -78.84679505 45.41775909 -72.14501953 50.93676758 C-64.98515659 56.96884134 -64.98515659 56.96884134 -55.93041992 58.11352539 C-52.56140665 57.10289727 -52.56140665 57.10289727 -49.10620117 55.62915039 C-48.47812057 55.37228455 -47.85003998 55.1154187 -47.20292664 54.85076904 C-45.88392625 54.30785942 -44.56711353 53.75960712 -43.25244141 53.20629883 C-41.24470001 52.36427194 -39.22818289 51.54664154 -37.2097168 50.73071289 C-35.92461456 50.19829752 -34.64008796 49.66449012 -33.35620117 49.12915039 C-31.61463745 48.40646973 -31.61463745 48.40646973 -29.83789062 47.66918945 C-26.78934774 46.03804366 -25.55653119 45.12474499 -23.93041992 42.11352539 C-22.93102768 38.93763164 -22.93102768 38.93763164 -22.21166992 35.37133789 C-22.06765747 34.72534637 -21.92364502 34.07935486 -21.77526855 33.41378784 C-21.31748334 31.3573221 -20.87267894 29.29838173 -20.43041992 27.23852539 C-19.98745323 25.18600034 -19.54139867 23.13439585 -19.08557129 21.08468628 C-18.6710801 19.21991069 -18.2681964 17.3525662 -17.8659668 15.48510742 C-15.99402952 8.7389034 -13.44832527 5.13699804 -7.93041992 1.11352539 C-4.97643234 0.12886286 -3.0779297 -0.00775297 0 0 Z " fill="#8D54E2" transform="translate(473.930419921875,304.886474609375)"/>
<path d="M0 0 C1 3 1 3 1 6 C0.34 6 -0.32 6 -1 6 C-1.33 6.99 -1.66 7.98 -2 9 C-2.66 9 -3.32 9 -4 9 C-4.33 10.32 -4.66 11.64 -5 13 C-5.66 13 -6.32 13 -7 13 C-7.33064453 13.83337891 -7.33064453 13.83337891 -7.66796875 14.68359375 C-9.4301444 17.74802238 -11.68465217 19.70490445 -14.3125 22.0625 C-15.25738281 22.91972656 -16.20226562 23.77695312 -17.17578125 24.66015625 C-19.71309788 26.76230377 -22.13404413 28.39524553 -25 30 C-26.77189635 31.03985742 -28.54274601 32.08150061 -30.3125 33.125 C-31.19550781 33.64320313 -32.07851563 34.16140625 -32.98828125 34.6953125 C-33.65214844 35.12585938 -34.31601562 35.55640625 -35 36 C-35 36.33 -35 36.66 -35 37 C-33.66679321 37.02777514 -32.33340287 37.04673341 -31 37.0625 C-29.88625 37.07990234 -29.88625 37.07990234 -28.75 37.09765625 C-25.85656491 37.04167547 -25.85656491 37.04167547 -22.4453125 36.5078125 C-19.11159742 36.06649434 -15.8546304 35.92492846 -12.4921875 35.89453125 C3.34361951 35.73231912 18.80421799 34.25565122 34.5 32.1875 C35.45988831 32.06275299 36.41977661 31.93800598 37.40875244 31.80947876 C48.76306958 30.32067227 60.0169504 28.55327801 71.2388916 26.26029968 C75.21856707 25.45898067 78.91445022 24.75952012 83 25 C83.185625 23.9171875 83.185625 23.9171875 83.375 22.8125 C83.9904931 20.04278106 84.88444374 17.6029646 86 15 C87.18541684 18.55625051 86.78623742 19.11692297 85.3125 22.421875 C84.94382812 23.28296875 84.57515625 24.1440625 84.1953125 25.03125 C83.40419029 26.83066523 82.60739117 28.62759622 81.8046875 30.421875 C79.55654276 35.70422907 78.15457742 39.31837363 80 45 C81.88081603 48.61678248 84.03035507 52.02060676 86.25 55.4375 C86.82363281 56.34048828 87.39726563 57.24347656 87.98828125 58.17382812 C90.1479644 61.57077849 92.32201962 64.9579938 94.51733398 68.33203125 C95.19517944 69.38777344 95.19517944 69.38777344 95.88671875 70.46484375 C96.28334717 71.07577881 96.67997559 71.68671387 97.08862305 72.31616211 C98.57854298 75.06890194 98.59413627 76.96330353 98 80 C96.3125 83.0625 96.3125 83.0625 94 86 C93.36578125 86.89332031 92.7315625 87.78664063 92.078125 88.70703125 C87.32353399 92.24883953 83.14230132 91.24443626 77.4375 90.625 C76.29144287 90.51631592 75.14538574 90.40763184 73.96459961 90.2956543 C22.10385097 84.9635176 -26.78152973 67.27912874 -73.25390625 44.35253906 C-75.13173929 43.42764619 -77.01484681 42.51340622 -78.90234375 41.60839844 C-79.81113281 41.16786133 -80.71992188 40.72732422 -81.65625 40.2734375 C-82.46900391 39.88333496 -83.28175781 39.49323242 -84.11914062 39.09130859 C-86 38 -86 38 -87 36 C-86.28199219 36.144375 -85.56398438 36.28875 -84.82421875 36.4375 C-63.4944076 40.26252217 -43.73585029 38.28278867 -25 27 C-21.46134749 24.53410772 -18.20289614 21.88549202 -15 19 C-14.37738281 18.45859375 -13.75476563 17.9171875 -13.11328125 17.359375 C-7.70097902 12.34843451 -3.91607662 6.19452121 0 0 Z " fill="#753CD7" transform="translate(556,535)"/>
<path d="M0 0 C0.33 0.66 0.66 1.32 1 2 C1.67297119 1.98694824 2.34594238 1.97389648 3.03930664 1.96044922 C9.59950305 1.88859103 15.93776207 2.25377468 22.4375 3.125 C23.90352661 3.32077637 23.90352661 3.32077637 25.39916992 3.52050781 C79.59976265 11.19959909 131.34822644 30.50806621 180 55 C176.26023856 56.24658715 174.6055776 55.54459719 170.8125 54.5625 C158.76466746 51.87003897 147.72962067 52.35078866 135.79296875 55.44140625 C133 56 133 56 130 55 C131.32 54.67 132.64 54.34 134 54 C133.67 53.34 133.34 52.68 133 52 C132.02047363 52.12842285 131.04094727 52.2568457 130.03173828 52.38916016 C120.66035025 53.60000313 111.29075499 54.56644324 101.875 55.375 C55.53424734 58.58526252 55.53424734 58.58526252 10 67 C10.51982185 62.06169242 12.14255661 58.0428636 14.16015625 53.5625 C15.41183037 49.7434385 15.83872142 46.81810795 14.10620117 43.0625 C12.82752503 40.82409898 11.46574232 38.66244544 10.0625 36.5 C9.56975586 35.71117432 9.07701172 34.92234863 8.56933594 34.10961914 C6.20951896 30.3517434 3.78386856 26.65644294 1.23046875 23.02734375 C-5.66308907 13.1338361 -5.66308907 13.1338361 -5.3125 7.875 C-4.45655845 4.33930298 -2.960688 2.19663948 0 0 Z " fill="#6730C6" transform="translate(336,375)"/>
<path d="M0 0 C11.59243073 9.27394458 20.5609078 20.93238276 29.3515625 32.78222656 C30.95137457 34.93458037 32.56872072 37.0728331 34.1875 39.2109375 C64.89482359 80.23418678 85.24898873 127.84227437 98.1875 177.1875 C98.47906982 178.29714111 98.77063965 179.40678223 99.07104492 180.55004883 C100.32260309 185.52472963 101.13835104 189.84229222 101 195 C98.09267056 190.63900585 96.79233273 187.3861952 95.91015625 182.16162109 C94.11865837 171.6280401 91.20307532 161.54648655 88 151.375 C87.67721069 150.34360901 87.67721069 150.34360901 87.34790039 149.29138184 C85.08878167 142.10003981 82.70047004 135.00675406 79.81738281 128.03808594 C78.49636091 124.74421172 77.61906405 121.35776503 76.7109375 117.93359375 C76.17850146 115.80377029 76.17850146 115.80377029 74 115 C73.1183514 112.96609778 72.31836342 110.8964225 71.5625 108.8125 C70.29240509 105.32869736 69.00701244 102.01394237 67.33984375 98.69921875 C66 96 66 96 66 94 C65.34 94 64.68 94 64 94 C63.01 90.7 62.02 87.4 61 84 C60.34 84 59.68 84 59 84 C58.16180842 82.37750059 57.3295884 80.75191503 56.5 79.125 C56.0359375 78.22007812 55.571875 77.31515625 55.09375 76.3828125 C54 74 54 74 54 72 C53.01 71.505 53.01 71.505 52 71 C50.9296875 69.44140625 50.9296875 69.44140625 49.875 67.5625 C49.52179687 66.94503906 49.16859375 66.32757813 48.8046875 65.69140625 C48 64 48 64 48 62 C47.34 62 46.68 62 46 62 C46 61.01 46 60.02 46 59 C45.34 59 44.68 59 44 59 C43.505 58.0925 43.01 57.185 42.5 56.25 C39.29776253 50.64323546 35.63098883 45.33459393 32 40 C31.48566406 39.24332031 30.97132813 38.48664063 30.44140625 37.70703125 C28.21488917 34.32253141 28.21488917 34.32253141 25 32 C23.5 29.5 23.5 29.5 22 27 C21.11966653 25.92462258 20.22328165 24.86221444 19.3125 23.8125 C17 21 17 21 17 19 C16.34 19 15.68 19 15 19 C13.76840314 17.30239352 12.5420289 15.60047907 11.35546875 13.87109375 C9.49046104 11.29663065 7.30129895 9.186234 5 7 C3.2958946 5.37163262 1.61974559 3.71230248 0 2 C0 1.34 0 0.68 0 0 Z " fill="#8A44E1" transform="translate(754,239)"/>
<path d="M0 0 C2.33902342 2.33902342 2.91286023 4.14145971 4 7.25 C4.34546875 8.23484375 4.6909375 9.2196875 5.046875 10.234375 C5.36140625 11.14703125 5.6759375 12.0596875 6 13 C6.4125 14.155 6.825 15.31 7.25 16.5 C8 19 8 19 8 22 C8.66 22 9.32 22 10 22 C10.18175781 22.56847656 10.36351562 23.13695312 10.55078125 23.72265625 C12.71219499 30.36207589 15.27502948 36.61360457 18.5 42.8125 C20.99485939 47.71930804 22.60920121 52.68556561 24 58 C24.66 58 25.32 58 26 58 C26.67119549 59.4562545 27.33681807 60.91507867 28 62.375 C28.37125 63.18710937 28.7425 63.99921875 29.125 64.8359375 C30 67 30 67 30 69 C30.66 69 31.32 69 32 69 C32.66 71.31 33.32 73.62 34 76 C34.66 76 35.32 76 36 76 C36.33 77.65 36.66 79.3 37 81 C37.66 81 38.32 81 39 81 C39.33 82.65 39.66 84.3 40 86 C40.99 86.33 41.98 86.66 43 87 C43.33 88.65 43.66 90.3 44 92 C44.66 92 45.32 92 46 92 C46.38478516 92.76570312 46.38478516 92.76570312 46.77734375 93.546875 C52.74544823 105.29148096 52.74544823 105.29148096 62 114 C63 115.66666667 64 117.33333333 65 119 C66.61064522 121.05429599 68.29654722 123.02031163 70 125 C69.67 125.66 69.34 126.32 69 127 C41.87011524 98.94331793 0 39.97311222 0 0 Z " fill="#8A48E2" transform="translate(153,607)"/>
<path d="M0 0 C1.3851329 -0.01031754 1.3851329 -0.01031754 2.79824829 -0.02084351 C5.77829981 -0.03796647 8.75818307 -0.04430458 11.73828125 -0.046875 C12.75812103 -0.04854675 13.77796082 -0.05021851 14.82870483 -0.05194092 C31.37184826 -0.05356144 47.54543948 0.77589826 63.96630859 2.82275391 C66.82151881 3.17485281 69.67709461 3.48610735 72.5390625 3.77734375 C84.20708379 5.00061351 84.20708379 5.00061351 89.05078125 7.203125 C89.05078125 7.533125 89.05078125 7.863125 89.05078125 8.203125 C81.13752147 7.82318372 73.42826445 7.01447861 65.61328125 5.765625 C33.23763475 0.75835511 0.81111868 0.93204392 -31.66015625 4.83935547 C-37.07847005 5.43861969 -42.51146936 5.82712234 -47.94921875 6.203125 C-44.84032623 4.43590283 -42.20063625 3.80519543 -38.66015625 3.38671875 C-37.63535156 3.26232422 -36.61054688 3.13792969 -35.5546875 3.00976562 C-33.95560547 2.82704102 -33.95560547 2.82704102 -32.32421875 2.640625 C-30.75994141 2.45209961 -30.75994141 2.45209961 -29.1640625 2.25976562 C-26.09363354 1.89369076 -23.02317726 1.53838676 -19.94921875 1.203125 C-19.20461899 1.11799652 -18.46001923 1.03286804 -17.69285583 0.94515991 C-11.78154219 0.30241815 -5.94411312 0.03041236 0 0 Z " fill="#D4ABFE" transform="translate(441.94921875,159.796875)"/>
<path d="M0 0 C1.89453748 2.84180622 3.00192814 5.31564815 4.1875 8.5 C4.55230469 9.4590625 4.91710937 10.418125 5.29296875 11.40625 C6 14 6 14 5 17 C5 16.34 5 15.68 5 15 C4.34 15.66 3.68 16.32 3 17 C3.30271961 18.34061543 3.63837971 19.67405895 4 21 C3.67 21.99 3.34 22.98 3 24 C3.66 24 4.32 24 5 24 C6.125 31.75 6.125 31.75 5 34 C5.66 34 6.32 34 7 34 C7.04898438 34.92683594 7.09796875 35.85367188 7.1484375 36.80859375 C7.22320312 38.00613281 7.29796875 39.20367188 7.375 40.4375 C7.44460937 41.63246094 7.51421875 42.82742188 7.5859375 44.05859375 C7.72257813 45.02925781 7.85921875 45.99992188 8 47 C8.66 47.33 9.32 47.66 10 48 C10.70603404 51.74198039 11 55.18792739 11 59 C11.66 59 12.32 59 13 59 C13 61.31 13 63.62 13 66 C13.66 66 14.32 66 15 66 C15 66.99 15 67.98 15 69 C14.34 69 13.68 69 13 69 C6.91533746 51.17678494 2.539625 32.79606823 0.0625 14.125 C-0.06592285 13.16263428 -0.1943457 12.20026855 -0.32666016 11.20874023 C-1.20120487 3.95605047 -1.20120487 3.95605047 0 0 Z " fill="#8740DF" transform="translate(139,537)"/>
<path d="M0 0 C3.94826246 3.94826246 4.31670722 8.63127102 5 14 C5.20625 14.78375 5.4125 15.5675 5.625 16.375 C5.74875 16.91125 5.8725 17.4475 6 18 C5.67 18.33 5.34 18.66 5 19 C4.90105545 20.4346959 4.87029265 21.87440397 4.875 23.3125 C4.87242187 24.09238281 4.86984375 24.87226563 4.8671875 25.67578125 C4.92507342 27.99855442 4.92507342 27.99855442 5.55859375 30.1796875 C6.17809191 32.73443212 5.2427265 33.71076698 4 36 C3.30269194 38.3243602 2.63087848 40.65673706 2 43 C2.66 43.33 3.32 43.66 4 44 C4 43.34 4 42.68 4 42 C4.66 42 5.32 42 6 42 C4.44633255 46.97173583 1.50246 51.18561608 -2 55 C-3.485 55.495 -3.485 55.495 -5 56 C-4.82984375 55.46375 -4.6596875 54.9275 -4.484375 54.375 C-3.62390925 51.59221715 -2.8105026 48.79776001 -2 46 C-1.64035156 44.80246094 -1.28070312 43.60492187 -0.91015625 42.37109375 C2.76317417 29.52092155 3.53112519 17.02102414 0 4 C0 2.68 0 1.36 0 0 Z " fill="#884BE2" transform="translate(562,479)"/>
<path d="M0 0 C0.33 0.66 0.66 1.32 1 2 C0.14453125 4.07421875 0.14453125 4.07421875 -1.1875 6.6875 C-8.23452849 21.86420102 -10.719551 38.7050514 -6.4375 55.08984375 C-6 57 -6 57 -6 61 C-6.66 61 -7.32 61 -8 61 C-8.13277344 60.28972656 -8.26554687 59.57945312 -8.40234375 58.84765625 C-8.66724609 57.46900391 -8.66724609 57.46900391 -8.9375 56.0625 C-9.11152344 55.14597656 -9.28554688 54.22945312 -9.46484375 53.28515625 C-9.77714988 51.04710156 -9.77714988 51.04710156 -11 50 C-11.10231596 47.38492442 -11.14090801 44.80255424 -11.125 42.1875 C-11.12234131 41.42228027 -11.11968262 40.65706055 -11.11694336 39.86865234 C-10.98542228 23.95626685 -10.98542228 23.95626685 -9 18 C-9.66 18 -10.32 18 -11 18 C-9.63167453 14.18237194 -7.87003864 11.15890947 -5.5 7.875 C-4.8915625 7.02679688 -4.283125 6.17859375 -3.65625 5.3046875 C-3.1096875 4.54414063 -2.563125 3.78359375 -2 3 C-1.34 2.01 -0.68 1.02 0 0 Z " fill="#4717A8" transform="translate(427,462)"/>
<path d="M0 0 C1 3 1 3 1 6 C0.34 6 -0.32 6 -1 6 C-1.33 6.99 -1.66 7.98 -2 9 C-2.66 9 -3.32 9 -4 9 C-4.33 10.32 -4.66 11.64 -5 13 C-5.66 13 -6.32 13 -7 13 C-7.33064453 13.83337891 -7.33064453 13.83337891 -7.66796875 14.68359375 C-9.4301444 17.74802238 -11.68465217 19.70490445 -14.3125 22.0625 C-15.25738281 22.91972656 -16.20226562 23.77695312 -17.17578125 24.66015625 C-19.71349246 26.76263069 -22.13155501 28.39837614 -25 30 C-26.77293757 31.0171744 -28.54380466 32.03796685 -30.3125 33.0625 C-31.19550781 33.56910156 -32.07851563 34.07570313 -32.98828125 34.59765625 C-33.65214844 35.06042969 -34.31601562 35.52320313 -35 36 C-35 36.66 -35 37.32 -35 38 C-37.97 38 -40.94 38 -44 38 C-43.01 37.505 -43.01 37.505 -42 37 C-42 36.34 -42 35.68 -42 35 C-40.98292969 34.56300781 -40.98292969 34.56300781 -39.9453125 34.1171875 C-22.91584921 26.61667597 -9.4654131 16.32566663 0 0 Z " fill="#773BDA" transform="translate(556,535)"/>
<path d="M0 0 C0.33 0.66 0.66 1.32 1 2 C-1.92098806 8.89934737 -6.33561921 15.30614405 -10.25 21.6875 C-10.68610596 22.40695801 -11.12221191 23.12641602 -11.5715332 23.86767578 C-12.65863452 25.61438802 -13.82287398 27.31264489 -15 29 C-15.66 29 -16.32 29 -17 29 C-17.6496875 29.8971875 -17.6496875 29.8971875 -18.3125 30.8125 C-20.27649791 33.35842322 -22.21126453 34.43558742 -25 36 C-26.34631825 36.98244845 -27.68441297 37.97676564 -29 39 C-27.55406844 35.70239078 -25.74256279 33.51908289 -23.25 30.9375 C-18.68529612 25.97199286 -14.67456542 20.68723828 -10.6875 15.25 C-10.08905273 14.43394287 -9.49060547 13.61788574 -8.87402344 12.77709961 C-5.81746088 8.57840667 -2.84022795 4.34800328 0 0 Z " fill="#BD8CFA" transform="translate(807,681)"/>
<path d="M0 0 C15.4167438 12.33339504 26.67716105 28.98135689 38.1875 44.8125 C38.74034668 45.57127441 39.29319336 46.33004883 39.86279297 47.11181641 C40.37600098 47.8238623 40.88920898 48.5359082 41.41796875 49.26953125 C41.86938232 49.89448486 42.3207959 50.51943848 42.78588867 51.16333008 C44.03077007 53.046548 45.03278327 54.9622278 46 57 C45.34 57.66 44.68 58.32 44 59 C43.505 58.0925 43.01 57.185 42.5 56.25 C39.29776253 50.64323546 35.63098883 45.33459393 32 40 C31.48566406 39.24332031 30.97132813 38.48664063 30.44140625 37.70703125 C28.21488917 34.32253141 28.21488917 34.32253141 25 32 C23.5 29.5 23.5 29.5 22 27 C21.11966653 25.92462258 20.22328165 24.86221444 19.3125 23.8125 C17 21 17 21 17 19 C16.34 19 15.68 19 15 19 C13.76840314 17.30239352 12.5420289 15.60047907 11.35546875 13.87109375 C9.49046104 11.29663065 7.30129895 9.186234 5 7 C3.2958946 5.37163262 1.61974559 3.71230248 0 2 C0 1.34 0 0.68 0 0 Z " fill="#9455E8" transform="translate(754,239)"/>
<path d="M0 0 C0.95519531 0.2165625 0.95519531 0.2165625 1.9296875 0.4375 C14.17216904 2.77558666 26.59025456 2.18063676 39 2 C32.25516021 6.49655986 22.81197246 5.10717645 15 5 C14.67 5.66 14.34 6.32 14 7 C14.928125 7.268125 15.85625 7.53625 16.8125 7.8125 C19.76240366 8.91148371 21.05615186 9.62418561 23 12 C17.9511786 10.47342723 13.38371054 8.35878819 8.6875 6 C7.95982422 5.64421875 7.23214844 5.2884375 6.48242188 4.921875 C1.12210792 2.24421584 1.12210792 2.24421584 0 0 Z " fill="#5B21C1" transform="translate(469,571)"/>
<path d="M0 0 C1.00546875 0.00902344 2.0109375 0.01804687 3.046875 0.02734375 C4.13742187 0.04474609 4.13742187 0.04474609 5.25 0.0625 C5.745 1.0525 5.745 1.0525 6.25 2.0625 C5.40816162 2.11784912 4.56632324 2.17319824 3.69897461 2.23022461 C0.54729914 2.43871639 -2.60420489 2.64960168 -5.75561523 2.86206055 C-7.1142761 2.95317549 -8.47299956 3.0433625 -9.83178711 3.13256836 C-11.79557606 3.26166062 -13.75911934 3.39447283 -15.72265625 3.52734375 C-17.49008179 3.64517212 -17.49008179 3.64517212 -19.29321289 3.76538086 C-24.11463717 4.17979384 -28.86463752 4.92485588 -33.64453125 5.66796875 C-34.93746094 5.86003906 -36.23039062 6.05210937 -37.5625 6.25 C-38.22958984 6.35763672 -38.89667969 6.46527344 -39.58398438 6.57617188 C-41.29587249 6.82319508 -43.02392214 6.95188074 -44.75 7.0625 C-45.41 6.4025 -46.07 5.7425 -46.75 5.0625 C-42.33420152 4.41063972 -37.9172214 3.76714134 -33.5 3.125 C-31.64761719 2.85139648 -31.64761719 2.85139648 -29.7578125 2.57226562 C-19.87288858 1.14155295 -10.00587978 -0.11911762 0 0 Z " fill="#C796FD" transform="translate(466.75,122.9375)"/>
<path d="M0 0 C5.10230048 0.57704589 9.08272794 2.99998977 13.5 5.4375 C20.08552404 9.06527953 20.08552404 9.06527953 27 12 C23.29338481 13.2355384 21.70005439 12.58434135 17.9375 11.625 C9.33284532 9.651786 0.80047977 9.28935818 -8 9 C-8 8.67 -8 8.34 -8 8 C-6.92878906 7.95101563 -5.85757812 7.90203125 -4.75390625 7.8515625 C-3.35674361 7.77654706 -1.9596095 7.7009987 -0.5625 7.625 C0.14455078 7.5940625 0.85160156 7.563125 1.58007812 7.53125 C3.39239188 7.42719371 5.19817988 7.22080108 7 7 C7.33 6.34 7.66 5.68 8 5 C5.36 3.68 2.72 2.36 0 1 C0 0.67 0 0.34 0 0 Z " fill="#5926B5" transform="translate(489,418)"/>
<path d="M0 0 C3.26969348 3.26969348 3.34803714 7.62274156 4.1875 12.0625 C4.47270508 13.43825195 4.47270508 13.43825195 4.76367188 14.84179688 C5.92721218 20.8999348 5.9792364 25.90628048 5 32 C3.42552994 28.90900828 2.12709702 25.82371463 0.9375 22.5625 C0.42509766 21.17224609 0.42509766 21.17224609 -0.09765625 19.75390625 C-0.94242242 17.17572379 -1.5301231 14.66909453 -2 12 C-1.34 12.66 -0.68 13.32 0 14 C1.10370043 10.6888987 0.92673641 8.75251051 0.5625 5.3125 C0.46066406 4.31863281 0.35882812 3.32476562 0.25390625 2.30078125 C0.17011719 1.54152344 0.08632813 0.78226562 0 0 Z " fill="#8A44DE" transform="translate(855,435)"/>
<path d="M0 0 C3.28922131 3.28922131 4.48018046 6.2982475 6 10.5625 C6.25982666 11.27688232 6.51965332 11.99126465 6.78735352 12.72729492 C12.31121522 28.06635433 12.31121522 28.06635433 11 32 C10.48050781 30.92621094 9.96101562 29.85242188 9.42578125 28.74609375 C8.7216835 27.30973435 8.01723775 25.8735455 7.3125 24.4375 C6.97283203 23.73302734 6.63316406 23.02855469 6.28320312 22.30273438 C4.4976439 18.68155352 2.62468144 15.35496783 0.23046875 12.09765625 C-2 9 -2 9 -2 7 C-1.34 7 -0.68 7 0 7 C0.33 7.66 0.66 8.32 1 9 C0.67 6.03 0.34 3.06 0 0 Z " fill="#7D42DA" transform="translate(550,446)"/>
<path d="M0 0 C0.12375 0.61875 0.2475 1.2375 0.375 1.875 C0.87197356 4.19120832 0.87197356 4.19120832 3 6 C3 5.34 3 4.68 3 4 C3.66 4 4.32 4 5 4 C3.44633255 8.97173583 0.50246 13.18561608 -3 17 C-3.99 17.33 -4.98 17.66 -6 18 C-4.23536928 11.89262558 -2.30442525 5.92566493 0 0 Z " fill="#8549E0" transform="translate(563,517)"/>
<path d="M0 0 C4.37619097 0.44739178 8.75066533 0.90983558 13.125 1.375 C14.98125 1.56449219 14.98125 1.56449219 16.875 1.7578125 C18.07382812 1.88671875 19.27265625 2.015625 20.5078125 2.1484375 C21.60754395 2.26364746 22.70727539 2.37885742 23.84033203 2.49755859 C27.06280059 3.00998637 29.93948621 3.8830536 33 5 C33 5.33 33 5.66 33 6 C21.52814175 5.44919886 10.32896246 3.8121781 -1 2 C-0.67 1.34 -0.34 0.68 0 0 Z " fill="#CA9DFB" transform="translate(498,162)"/>
<path d="M0 0 C0.99 0.33 1.98 0.66 3 1 C0.4290186 3.65808032 -2.15875481 6.29918202 -4.75 8.9375 C-5.47960937 9.69224609 -6.20921875 10.44699219 -6.9609375 11.22460938 C-8.02441406 12.30258789 -8.02441406 12.30258789 -9.109375 13.40234375 C-9.75874023 14.06741943 -10.40810547 14.73249512 -11.07714844 15.41772461 C-13.09495833 17.07813928 -14.44587004 17.59998548 -17 18 C-11.72898586 11.58930713 -5.90871848 5.81409488 0 0 Z " fill="#7B41DF" transform="translate(220,255)"/>
<path d="M0 0 C1 3 1 3 1 6 C0.34 6 -0.32 6 -1 6 C-1.33 6.99 -1.66 7.98 -2 9 C-2.66 9 -3.32 9 -4 9 C-4.33 10.32 -4.66 11.64 -5 13 C-5.66 13 -6.32 13 -7 13 C-7.2475 13.598125 -7.495 14.19625 -7.75 14.8125 C-9.16370012 17.28647521 -10.65055383 18.43370255 -13 20 C-13 16.14167366 -11.93228347 15.54850307 -9.3125 12.8125 C-5.58840212 8.7775094 -2.75737054 4.73923062 0 0 Z " fill="#7F44DE" transform="translate(556,535)"/>
<path d="M0 0 C0 3.42801683 -0.43540049 3.91071644 -2.51953125 6.46875 C-3.04740234 7.12230469 -3.57527344 7.77585937 -4.11914062 8.44921875 C-4.67794922 9.12597656 -5.23675781 9.80273438 -5.8125 10.5 C-6.35970703 11.17675781 -6.90691406 11.85351562 -7.47070312 12.55078125 C-9.87242739 15.50271871 -12.27129797 18.34258702 -15 21 C-13.46197215 15.15549417 -10.5439162 9.87288478 -7 5 C-6.34 5 -5.68 5 -5 5 C-3.29319053 3.37446717 -1.62339805 1.70884005 0 0 Z " fill="#C69AFB" transform="translate(190,285)"/>
<path d="M0 0 C0 4.09589162 -1.70561334 5.45787751 -4.34375 8.42578125 C-6.38175094 10.36284346 -8.34410319 11.13862806 -11 12 C-12.77277259 13.52007842 -12.77277259 13.52007842 -14 15 C-12.54822555 10.88663907 -10.61875142 7.49166855 -8 4 C-5 3 -5 3 -3 3 C-1.37485532 1.54166642 -1.37485532 1.54166642 0 0 Z " fill="#BD8DFA" transform="translate(198,276)"/>
<path d="M0 0 C-2.83987031 1.89324687 -4.25506753 2.42684829 -7.4921875 3.0703125 C-8.36230469 3.24433594 -9.23242188 3.41835938 -10.12890625 3.59765625 C-11.03511719 3.77167969 -11.94132813 3.94570313 -12.875 4.125 C-13.77347656 4.30675781 -14.67195312 4.48851562 -15.59765625 4.67578125 C-19.81533886 5.50436587 -23.68697804 6.09847955 -28 6 C-25.71656857 3.71656857 -24.73808544 3.54627058 -21.640625 2.9296875 C-20.77179687 2.75566406 -19.90296875 2.58164062 -19.0078125 2.40234375 C-18.09773437 2.22832031 -17.18765625 2.05429687 -16.25 1.875 C-14.90808594 1.60236328 -14.90808594 1.60236328 -13.5390625 1.32421875 C-8.96162577 0.426285 -4.68970936 -0.23293258 0 0 Z " fill="#A46AF0" transform="translate(682,531)"/>
<path d="M0 0 C0 4.08481881 -1.70119331 5.84704653 -4 9.1875 C-4.7425 10.27417969 -5.485 11.36085938 -6.25 12.48046875 C-6.8275 13.31191406 -7.405 14.14335938 -8 15 C-8.33 14.34 -8.66 13.68 -9 13 C-9.66 12.67 -10.32 12.34 -11 12 C-7.37 8.04 -3.74 4.08 0 0 Z " fill="#6E2EDA" transform="translate(813,670)"/>
<path d="M0 0 C1.89453748 2.84180622 3.00192814 5.31564815 4.1875 8.5 C4.55230469 9.4590625 4.91710937 10.418125 5.29296875 11.40625 C6 14 6 14 5 17 C5 16.34 5 15.68 5 15 C4.01 15.33 3.02 15.66 2 16 C1.86722656 15.38511719 1.73445312 14.77023437 1.59765625 14.13671875 C1.42105469 13.32847656 1.24445313 12.52023437 1.0625 11.6875 C0.88847656 10.88699219 0.71445313 10.08648438 0.53515625 9.26171875 C0.00113841 6.854599 0.00113841 6.854599 -1 4 C-0.5625 1.8125 -0.5625 1.8125 0 0 Z " fill="#9250DF" transform="translate(139,537)"/>
<path d="M0 0 C3.64991166 1.31802365 5.7895201 2.59214008 9 5 C-3.87 4.505 -3.87 4.505 -17 4 C-17 3.67 -17 3.34 -17 3 C-15.94039063 2.95101563 -14.88078125 2.90203125 -13.7890625 2.8515625 C-12.40101503 2.77653291 -11.01299549 2.70098515 -9.625 2.625 C-8.57699219 2.57859375 -8.57699219 2.57859375 -7.5078125 2.53125 C-3.29814173 2.40500502 -3.29814173 2.40500502 0 0 Z " fill="#4310AB" transform="translate(498,423)"/>
<path d="M0 0 C-1.72992238 5.18976713 -5.41221225 7.36202204 -10 10 C-11.34631825 10.98244845 -12.68441297 11.97676564 -14 13 C-12.00480493 8.10270302 -5.64638715 0 0 0 Z " fill="#B685F6" transform="translate(792,707)"/>
<path d="M0 0 C0.33 0.66 0.66 1.32 1 2 C1.66 2 2.32 2 3 2 C3.33820166 3.5823006 3.67035939 5.16589375 4 6.75 C4.185625 7.63171875 4.37125 8.5134375 4.5625 9.421875 C5 12 5 12 5 16 C4.34 16 3.68 16 3 16 C2.86722656 15.28972656 2.73445313 14.57945312 2.59765625 13.84765625 C2.42105469 12.92855469 2.24445313 12.00945313 2.0625 11.0625 C1.88847656 10.14597656 1.71445312 9.22945312 1.53515625 8.28515625 C1.22285012 6.04710156 1.22285012 6.04710156 0 5 C-0.04063832 3.33382885 -0.042721 1.66611905 0 0 Z " fill="#5521B2" transform="translate(416,507)"/>
<path d="M0 0 C3.94826246 3.94826246 4.31670722 8.63127102 5 14 C5.30903983 15.33917261 5.62942911 16.67653254 6 18 C5.34 18.33 4.68 18.66 4 19 C3.32713788 16.58490559 2.66153988 14.16819644 2 11.75 C1.71382812 10.72712891 1.71382812 10.72712891 1.421875 9.68359375 C0.50042956 6.29399088 0 3.54221024 0 0 Z " fill="#9259E7" transform="translate(562,479)"/>
<path d="M0 0 C2.34914492 2.34914492 2.73140357 3.95679446 3.625 7.125 C3.88539063 8.03507813 4.14578125 8.94515625 4.4140625 9.8828125 C4.70410156 10.93082031 4.70410156 10.93082031 5 12 C5.66 12 6.32 12 7 12 C7.33 13.32 7.66 14.64 8 16 C7.34 16.33 6.68 16.66 6 17 C4.80283341 14.54595776 3.6170654 12.08748321 2.4375 9.625 C2.09525391 8.92632813 1.75300781 8.22765625 1.40039062 7.5078125 C0.53969288 5.69947784 -0.23652436 3.85148044 -1 2 C-0.67 1.34 -0.34 0.68 0 0 Z " fill="#8F51E3" transform="translate(172,653)"/>
<path d="M0 0 C0.78375 0.33 1.5675 0.66 2.375 1 C6.99361869 2.27410171 11.24249356 2.16923936 16 2 C15.67 2.66 15.34 3.32 15 4 C11.36217368 5.21260877 8.82264001 5.39544552 5 5 C2.0625 2.5 2.0625 2.5 0 0 Z " fill="#5F22CA" transform="translate(813,567)"/>
<path d="M0 0 C0.66 0.33 1.32 0.66 2 1 C2.4140625 3.28515625 2.4140625 3.28515625 2.625 6.0625 C2.69976562 6.98160156 2.77453125 7.90070312 2.8515625 8.84765625 C2.92503906 9.91306641 2.92503906 9.91306641 3 11 C2.01 11 1.02 11 0 11 C-1.125 3.375 -1.125 3.375 0 0 Z " fill="#8951DE" transform="translate(333,607)"/>
<path d="M0 0 C0.33 0 0.66 0 1 0 C1.13277344 0.81984375 1.26554688 1.6396875 1.40234375 2.484375 C1.57894531 3.56203125 1.75554687 4.6396875 1.9375 5.75 C2.11152344 6.81734375 2.28554687 7.8846875 2.46484375 8.984375 C2.91439792 11.89188836 2.91439792 11.89188836 3.69140625 14.203125 C4 16 4 16 2 19 C0.67611771 12.56971459 -0.24794402 6.5705166 0 0 Z " fill="#7D2ED9" transform="translate(139,542)"/>
<path d="M0 0 C0.33 0.66 0.66 1.32 1 2 C-0.21484375 4.8203125 -0.21484375 4.8203125 -1.9375 8.125 C-2.50339844 9.22070312 -3.06929688 10.31640625 -3.65234375 11.4453125 C-4.09707031 12.28835938 -4.54179687 13.13140625 -5 14 C-5.66 12.68 -6.32 11.36 -7 10 C-3.535 5.05 -3.535 5.05 0 0 Z " fill="#4316A5" transform="translate(427,462)"/>
<path d="M0 0 C1.21236328 0.02707031 1.21236328 0.02707031 2.44921875 0.0546875 C3.37154297 0.08949219 3.37154297 0.08949219 4.3125 0.125 C4.6425 1.115 4.9725 2.105 5.3125 3.125 C1.0225 2.795 -3.2675 2.465 -7.6875 2.125 C-4.48369983 -0.01086678 -3.66810033 -0.10632175 0 0 Z " fill="#BE8CFA" transform="translate(459.6875,860.875)"/>
<path d="M0 0 C4.95 0.99 4.95 0.99 10 2 C10.33 3.32 10.66 4.64 11 6 C6.95743617 4.77782954 3.50711041 3.37245704 0 1 C0 0.67 0 0.34 0 0 Z " fill="#5920BE" transform="translate(469,571)"/>
<path d="M0 0 C0.99 0 1.98 0 3 0 C2.67 2.97 2.34 5.94 2 9 C1.01 9 0.02 9 -1 9 C-0.67 6.03 -0.34 3.06 0 0 Z " fill="#6F38D0" transform="translate(332,379)"/>
<path d="M0 0 C5.94 0.99 5.94 0.99 12 2 C12 2.66 12 3.32 12 4 C12.66 4.33 13.32 4.66 14 5 C8.72250715 4.46148032 4.74354436 3.22656164 0 1 C0 0.67 0 0.34 0 0 Z " fill="#C496FA" transform="translate(569,177)"/>
<path d="M0 0 C0.33 0.66 0.66 1.32 1 2 C0.109375 4.12890625 0.109375 4.12890625 -1.25 6.5625 C-1.68828125 7.36816406 -2.1265625 8.17382812 -2.578125 9.00390625 C-4 11 -4 11 -7 12 C-5.44298069 7.32894208 -2.91552627 3.91294315 0 0 Z " fill="#CBA5FB" transform="translate(807,681)"/>
<path d="M0 0 C0.66 0.33 1.32 0.66 2 1 C2 2.32 2 3.64 2 5 C1.34 5 0.68 5 0 5 C0 6.98 0 8.96 0 11 C-2 9 -2 9 -2.25 6.625 C-1.99345272 3.93125358 -1.36770587 2.30800365 0 0 Z " fill="#612BC1" transform="translate(422,527)"/>
<path d="M0 0 C0.99 0.33 1.98 0.66 3 1 C0.33333333 3.66666667 -2.33333333 6.33333333 -5 9 C-5 4.61031544 -2.87194899 3.23094261 0 0 Z " fill="#7B40E0" transform="translate(189,288)"/>
<path d="M0 0 C2.31 0 4.62 0 7 0 C7 0.99 7 1.98 7 3 C4.03 3 1.06 3 -2 3 C-1.34 2.67 -0.68 2.34 0 2 C0 1.34 0 0.68 0 0 Z " fill="#7F49DA" transform="translate(514,570)"/>
<path d="M0 0 C0 0.99 0 1.98 0 3 C-0.66 2.67 -1.32 2.34 -2 2 C-1.34 1.34 -0.68 0.68 0 0 Z M-4 2 C-3.34 2.66 -2.68 3.32 -2 4 C-3.65 5.32 -5.3 6.64 -7 8 C-6.42655063 5.13275314 -6.1385485 4.1385485 -4 2 Z " fill="#6E35CF" transform="translate(165,447)"/>
<path d="M0 0 C3.7952131 1.49097658 5.61042731 3.75700849 8 7 C6.0625 6.625 6.0625 6.625 4 6 C3.67 5.34 3.34 4.68 3 4 C2.01 3.67 1.02 3.34 0 3 C0 2.01 0 1.02 0 0 Z " fill="#A772ED" transform="translate(747,232)"/>
<path d="M0 0 C3.625 0.375 3.625 0.375 7 1 C7 1.66 7 2.32 7 3 C4.03 2.67 1.06 2.34 -2 2 C-1.34 1.34 -0.68 0.68 0 0 Z " fill="#BD8BFB" transform="translate(432,857)"/>
<path d="M0 0 C2.64 0 5.28 0 8 0 C7.01 0.495 7.01 0.495 6 1 C6 1.66 6 2.32 6 3 C4.02 3 2.04 3 0 3 C0 2.01 0 1.02 0 0 Z " fill="#854CE1" transform="translate(557,800)"/>
<path d="M0 0 C0.66 0.66 1.32 1.32 2 2 C0.35 3.32 -1.3 4.64 -3 6 C-3 3 -3 3 -1.5 1.3125 C-0.7575 0.6628125 -0.7575 0.6628125 0 0 Z " fill="#8950E2" transform="translate(546,549)"/>
<path d="M0 0 C3.7952131 1.49097658 5.61042731 3.75700849 8 7 C5 7 5 7 2.3125 4.625 C0 2 0 2 0 0 Z " fill="#6A30CF" transform="translate(186,441)"/>
<path d="M0 0 C0.66 0 1.32 0 2 0 C1.65120368 3.25543229 0.97866739 4.01873107 -1.5625 6.25 C-2.366875 6.8275 -3.17125 7.405 -4 8 C-2.87548273 5.0280615 -1.77706209 2.66559313 0 0 Z " fill="#6C30DB" transform="translate(171,312)"/>
<path d="M0 0 C0.66 0 1.32 0 2 0 C0.68775452 3.93673644 -0.91910327 6.22719294 -4 9 C-2.94124926 5.59687262 -1.99097846 2.98646769 0 0 Z " fill="#CCA8FB" transform="translate(179,297)"/>
</svg>
